PathFileType	4	(X/Y/Z)	70_2_79_p0_0-577.trc
DataRate	CameraRate	NumFrames	NumMarkers	Units	OrigDataRate	OrigDataStartFrame	OrigNumFrames
50.0	50.0	5	27	m	50.0	289	578
Frame#	Time	RHip			RKnee			RAnkle			RBigToe			RSmallToe			RHeel			LHip			LKnee			LAnkle			LBigToe			LSmallToe			LHeel			Neck			Head			Nose			RShoulder			RElbow			RWrist			RThumb			RIndex			RPinky			LShoulder			LElbow			LWrist			LThumb			LIndex			LPinky			
		X1	Y1	Z1	X2	Y2	Z2	X3	Y3	Z3	X4	Y4	Z4	X5	Y5	Z5	X6	Y6	Z6	X7	Y7	Z7	X8	Y8	Z8	X9	Y9	Z9	X10	Y10	Z10	X11	Y11	Z11	X12	Y12	Z12	X13	Y13	Z13	X14	Y14	Z14	X15	Y15	Z15	X16	Y16	Z16	X17	Y17	Z17	X18	Y18	Z18	X19	Y19	Z19	X20	Y20	Z20	X21	Y21	Z21	X22	Y22	Z22	X23	Y23	Z23	X24	Y24	Z24	X25	Y25	Z25	X26	Y26	Z26	X27	Y27	Z27	
289	5.78	0.37885652104047246	0.505434520109537	0.09894509844123021	0.38439713103918655	0.6842858659244972	0.4938891625253635	0.3880078583672901	0.7995439815287358	0.909059669927233	0.33398484850440163	0.6689654539739797	1.012427631642658	0.41088185245913356	0.6580820233010204	0.9908891876242015	0.3645315327873735	0.9187674465749056	0.9844579339070643	0.15083259357414444	0.5188110186443885	0.07161658181090516	0.16805991911646398	0.610130522277214	0.49915435343410913	0.17184556295514705	0.8285456581569309	0.9052340093180018	0.17165217733508273	0.6708472625406036	0.994790727781607	0.11127239944358934	0.7155807323255388	0.9755571523378603	0.19426495840034136	0.8888911688514841	0.9505647569286237	0.2520639451627629	0.3812770454987888	-0.5330031757529734	0.2308222576992894	0.20542691951671652	-0.7689482608172005	0.22118136591548504	0.1830168877735243	-0.6065025699588193	0.4463612598872414	0.36941154047656966	-0.4593020739043655	0.511446375160683	0.4497183568516116	-0.17087731687407812	0.49331920167054594	0.459503753277645	0.11215381193411095	0.4353212079497591	0.39811763148884743	0.21795889054290163	0.440564664446653	0.4016148483530978	0.24119054432491563	0.47380424436925966	0.47465534199645504	0.2505741493110682	0.08413314289625523	0.47124346162656117	-0.4667309178267579	0.019022275512206734	0.572571031155108	-0.20237157268810335	0.011602050209900324	0.5352811645504874	0.08953115703800504	0.05028510998739799	0.5151769571196384	0.20018412270998034	0.023057898890797957	0.4692005275802548	0.21844831268783105	0.0007680440940498776	0.5633373301481083	0.2223075784654162
290	5.8	0.37887440889945784	0.5053813352891284	0.09891016847682507	0.38452271479924094	0.683894476537011	0.4977629242859437	0.38520727665577953	0.7948669268967081	0.8985459039706029	0.3394010151540135	0.6828393098522287	1.0171466020345206	0.4169065452123396	0.671241803864363	0.9998303932294874	0.36850293136587436	0.9202856927487281	0.9812484407847755	0.155708518528976	0.5213883736652561	0.07558763914147794	0.17298120709839496	0.6102420521363292	0.49118849413436927	0.171967329840473	0.8285175387814389	0.905094778703	0.17161187099708622	0.6706581845664342	0.9945413175955129	0.11133571509571764	0.715974879140029	0.9756076026153501	0.20299418631179078	0.9047075312184641	0.9523198309244354	0.2518255074162695	0.38080015345147916	-0.5362381896259919	0.22674990881218376	0.20557612955724203	-0.7687711286127267	0.22109984838723298	0.18285943900317514	-0.6065348792735463	0.44606220210345554	0.3689209213164668	-0.46256986518139476	0.5112730218535988	0.4505170955690836	-0.1673949493359822	0.49328157934726824	0.45934267539425133	0.11205488351964354	0.4313146214752032	0.3987240957711968	0.21826750864810007	0.44015837724278317	0.4015977094127191	0.24127868211262574	0.4682437343340913	0.46260746849487294	0.24911835645671673	0.0841139292381997	0.47120126428541964	-0.4666382957130628	0.018990173721510285	0.5725886037462813	-0.20251335951413146	0.011103130068904279	0.5363882810493229	0.08840079257803203	0.05392470946553789	0.5167854430336233	0.19725422471928628	0.023132164219725776	0.4692298093289455	0.21842832390762712	0.0008140538065034252	0.5632162284760698	0.22230293327040213
291	5.82	0.37889659465893133	0.5057205863527745	0.09917728145978359	0.38638242776239246	0.6846113214813359	0.49799697165764556	0.38809080396290735	0.7995385919897046	0.9090831485284638	0.33397314408407675	0.6690919306491618	1.0126497411770805	0.41643428006453787	0.6711611531973277	0.995774747125473	0.36938523820074515	0.9208395659443751	0.9851620240741857	0.15161231852818904	0.5209145956121202	0.07592077947676026	0.18259787775633005	0.6240696238244197	0.49720749841263107	0.17303468409685757	0.826986517965245	0.9001562967340204	0.17166907876241758	0.6706974088310244	0.9946363381671526	0.11904685922731813	0.7008427531316224	0.9703928904473175	0.2055864382597945	0.9095652013664753	0.9615194009426291	0.251767008310737	0.3807416177462547	-0.5363175070466245	0.22260016618843226	0.19530176196121257	-0.7660867687657837	0.22106749529571823	0.1828664851386836	-0.6064764393524124	0.44218938162489163	0.36915932622116904	-0.46238290379115304	0.5114229974433723	0.44985474763637984	-0.17093913966960705	0.4891696505952516	0.45920030621730396	0.11214203355880924	0.4312531365659534	0.3984207681481134	0.21805522425838123	0.4400968913672607	0.40151023557399135	0.23770054520989375	0.46802245892962574	0.46218409515935366	0.24906577382391562	0.08406043663762391	0.4712554308281335	-0.4666936182419424	0.018987535984994256	0.5726225411066893	-0.20226375768277868	0.015035776890210305	0.5502140822480879	0.08905008713471307	0.0539657753146212	0.5168111795334621	0.19709550881733975	0.023165983062445456	0.46898058946666993	0.21824033192717968	0.000804859585404802	0.5628303180960067	0.2221356867646717
292	5.84	0.3788533460762581	0.5058027377988543	0.09931922264423203	0.38584860555127	0.6859451981699911	0.502397025521336	0.3864871929378519	0.797973006501848	0.8997073819661005	0.33935976256273676	0.6825924691291889	1.0172544852159267	0.4165947301798889	0.6714286870409274	0.9956409384436906	0.36910290025298476	0.920997310998629	0.9810538731048499	0.15219160032055157	0.5237398905301865	0.08771925212001812	0.18237804132362812	0.6248556664006275	0.49367178799339484	0.17313969833026213	0.8268790547886176	0.9000877729358373	0.1713898777814311	0.6713290124077851	0.9904182473718378	0.11814555028951086	0.7023080469583428	0.9743311259236634	0.20084668767706262	0.8955769088708954	0.9567408622322112	0.25170945547073886	0.38070558446773506	-0.5363398618612504	0.222480283246237	0.1953014744920035	-0.7660830317159485	0.2188555756035704	0.1938395014504738	-0.6082307714362766	0.4419404641449023	0.3691106390133105	-0.4624555119062901	0.5113604924809002	0.44989861012895654	-0.17102097861859902	0.4890815916434907	0.4592037529249767	0.11209925669282908	0.4353024369141112	0.3967333352284993	0.21424601305407198	0.43995504987636647	0.40090342909041116	0.24102229268819886	0.46211225542059187	0.44949176677138775	0.24743180524237657	0.08403066186016332	0.47137675778488997	-0.46657492481369806	0.018933923027513688	0.5726032382067382	-0.20218967202640303	0.018915890013294995	0.5355935708236572	0.0850027110302363	0.05464800558348321	0.515990261951525	0.19280734379190498	0.027421630688652963	0.4798695470627383	0.21597106678408162	0.008288288145846406	0.5623416449478158	0.22218912398997942
293	5.86	0.37887533203201756	0.5055086277080889	0.09924657887896998	0.384546413414497	0.6835080424728159	0.49762426607559784	0.3866561901271764	0.7969437939948905	0.9036699779035705	0.33936916853789817	0.6826544612477063	1.0173037694014517	0.41657696285252543	0.6714331294116571	0.9957123696105854	0.3689878307560472	0.9206596709048595	0.9809749481943235	0.15269827011251702	0.5227464459685388	0.08385530997438077	0.1814214669886845	0.6221940486442095	0.4887439169782003	0.17307370959039117	0.8267879595917902	0.9001588688456499	0.16693898423241837	0.6561392361045875	0.9893895126392603	0.11890934434012784	0.7004045376401066	0.9704183154507547	0.2004407503137332	0.8939822971425795	0.9606001958005828	0.2517016078544701	0.3805932414185463	-0.5362921310727091	0.22247187759316658	0.19533791297992037	-0.7660610830963847	0.2188575152091784	0.19382940365199833	-0.6081537180318893	0.4419002870936157	0.36902758785275436	-0.46249263476722435	0.5113495729370098	0.44984690660133936	-0.17087733270192076	0.4890215960649151	0.4590814090863613	0.11198333693280609	0.43545465094143904	0.396130999862086	0.21390709425728568	0.439134041346722	0.39862396980782133	0.23293026886559925	0.4633355864229089	0.43571408721567156	0.24540662488007178	0.0842742772171764	0.47162297446146345	-0.46278526229940803	0.01864167076494352	0.5731945745220925	-0.19852995260858292	0.018796299390525618	0.5364380253944211	0.09226726619005425	0.054953928238066246	0.5159667792931047	0.19635224265018922	0.02753700865158355	0.48026649835215707	0.21608621313241344	0.004483114861941829	0.5495242202316071	0.2207449110954374
